# xmcd
#
# Track frame offsets:
#	150
#	13303
#	30385
#	46345
#	59902
#	74479
#	86078
#	101210
#	120199
#	136010
#	154823
#	168518
#	181595
#	200531
#	213232
#	226086
#	244008
#	258338
#	271278
#	289518
#
# Disc length: 4089 seconds
#
# Revision: 1
# Processed by: cddbd v1.5.2PL0 Copyright (c) Steve Scherf et al.
# Submitted via: audiograbber 1.80
#
DISCID=160ff714
DTITLE=Dansktop Gennem 40 År  - CD 3
DYEAR=1900
DGENRE=
TTITLE0=FEDE FINN and SUNNY BOYS - G-STRENGS TRUSSER
TTITLE1=KANDIS - VELKOMMEN HJEM
TTITLE2=BIRTHE KJÆR - SYV SEJE SILD
TTITLE3=RICHARD RAGNWALD - KÆRE LILLE MORMOR
TTITLE4=BJØRN and OKAY - EN LILLE BITTE TÅRER DER FALDT
TTITLE5=THE ROCKING GHOST - BELINDA
TTITLE6=KELD, HILDA and THE DONKEYS - HATTEN AF FOR FARMOR
TTITLE7=TEDDY EDELMANN - HIMMELHUNDEN
TTITLE8=ELISABETH EDBERG - EVITA ESSPANA
TTITLE9=BJARNE LILLER - BILLET MRK (ENSOM DAME 40 ÅR)
TTITLE10=GRETHE INGMANN - SOL, SOL KOM IGEN
TTITLE11=KELD OG THE DONKEYS - VED LANDSBYENS GADEKÆR
TTITLE12=DORTHE KOLLE - EN SØD STUDENT FRA HOLSTEBRO
TTITLE13=BENNY BERDINO and SØS FENGER - LAD OS FLYVE TIL EN STJERNE
TTITLE14=JOHNNY REIMAR - BIND DIT GULE HÅRBÅND
TTITLE15=LIS and PER - VORE ALLERBEDSTE ÅR
TTITLE16=BJØRN and JOHNNY - GODE BEN
TTITLE17=PETER VESTH - MIT LILLE SOMMERHUS
TTITLE18=JANNI - FERNANDO
TTITLE19=PETER and LINDY ALDAHL - DER ER DÆKKET TIL 2
EXTD=
EXTT0=
EXTT1=
EXTT2=
EXTT3=
EXTT4=
EXTT5=
EXTT6=
EXTT7=
EXTT8=
EXTT9=
EXTT10=
EXTT11=
EXTT12=
EXTT13=
EXTT14=
EXTT15=
EXTT16=
EXTT17=
EXTT18=
EXTT19=
PLAYORDER=
